<svg xmlns="http://www.w3.org/2000/svg" xmlns:xlink="http://www.w3.org/1999/xlink" width="1366" zoomAndPan="magnify" viewBox="0 0 1024.5 576" height="768" preserveAspectRatio="xMidYMid meet" version="1.0"><defs><g/><clipPath id="id1"><path d="M 203.078125 340.097656 L 212.121094 340.097656 L 212.121094 419.242188 L 203.078125 419.242188 Z M 203.078125 340.097656 " clip-rule="nonzero"/></clipPath><clipPath id="id2"><path d="M 57.601562 119.242188 L 357.601562 119.242188 L 357.601562 419.242188 L 57.601562 419.242188 Z M 57.601562 119.242188 " clip-rule="nonzero"/></clipPath></defs><g clip-path="url(#id1)"><path fill="#008037" d="M 207.785156 419.257812 C 207.804688 419.167969 217.332031 376.648438 207.769531 340.113281 C 198.203125 376.660156 207.734375 419.199219 207.746094 419.257812 L 207.785156 419.257812 " fill-opacity="1" fill-rule="nonzero"/></g><g clip-path="url(#id2)"><path fill="#008037" d="M 303.992188 244.558594 C 303.992188 244.558594 326.761719 242.53125 333.410156 223.769531 C 333.410156 223.769531 322.238281 240.828125 301.425781 240.167969 C 301.425781 240.167969 308.15625 211.40625 340.332031 218.023438 C 340.332031 218.023438 337.386719 258.632812 303.992188 244.558594 Z M 275.976562 279.324219 C 275.976562 279.324219 300.851562 286.183594 315.292969 268.972656 C 315.292969 268.972656 296.738281 282.59375 274.996094 273.671875 C 274.996094 273.671875 293.476562 245.917969 324.886719 265.636719 C 324.886719 265.636719 305.71875 307.40625 275.976562 279.324219 Z M 287.785156 232.515625 C 272.742188 218.117188 277.101562 198.195312 277.101562 198.195312 C 268.359375 216.074219 282.855469 233.753906 282.855469 233.753906 C 249.425781 219.765625 276.355469 189.226562 276.355469 189.226562 C 303.609375 207.570312 287.785156 232.515625 287.785156 232.515625 Z M 258.316406 257.445312 C 241.269531 241.265625 246.09375 218.757812 246.09375 218.757812 C 236.3125 238.984375 252.757812 258.867188 252.757812 258.867188 C 214.957031 243.234375 245.210938 208.640625 245.210938 208.640625 C 276.0625 229.214844 258.316406 257.445312 258.316406 257.445312 Z M 208.503906 284.320312 C 200.734375 284.320312 194.429688 276.679688 194.429688 267.257812 C 194.429688 257.835938 200.734375 250.199219 208.503906 250.199219 C 216.277344 250.199219 222.578125 257.835938 222.578125 267.257812 C 222.578125 276.679688 216.277344 284.320312 208.503906 284.320312 Z M 192.003906 308.71875 C 191.851562 308.542969 191.703125 308.363281 191.546875 308.191406 C 158.578125 271.640625 91.800781 242.113281 107.96875 174.628906 C 107.96875 174.628906 99.53125 225.246094 152.253906 260.390625 C 169.957031 272.191406 187.8125 283.363281 201.785156 296.558594 C 198.152344 300.40625 194.863281 304.441406 192.003906 308.71875 Z M 139.242188 279.324219 C 109.5 307.40625 90.332031 265.636719 90.332031 265.636719 C 121.742188 245.917969 140.21875 273.671875 140.21875 273.671875 C 118.480469 282.59375 99.921875 268.972656 99.921875 268.972656 C 114.367188 286.183594 139.242188 279.324219 139.242188 279.324219 Z M 74.882812 218.023438 C 107.0625 211.40625 113.792969 240.167969 113.792969 240.167969 C 92.984375 240.828125 81.808594 223.769531 81.808594 223.769531 C 88.453125 242.53125 111.226562 244.558594 111.226562 244.558594 C 77.832031 258.632812 74.882812 218.023438 74.882812 218.023438 Z M 138.863281 189.226562 C 138.863281 189.226562 165.792969 219.765625 132.363281 233.753906 C 132.363281 233.753906 146.855469 216.074219 138.113281 198.195312 C 138.113281 198.195312 142.476562 218.117188 127.433594 232.515625 C 127.433594 232.515625 111.605469 207.570312 138.863281 189.226562 Z M 170.003906 208.640625 C 170.003906 208.640625 200.257812 243.234375 162.460938 258.867188 C 162.460938 258.867188 178.902344 238.984375 169.121094 218.757812 C 169.121094 218.757812 173.949219 241.265625 156.898438 257.445312 C 156.898438 257.445312 139.152344 229.214844 170.003906 208.640625 Z M 328.136719 179.9375 C 328.878906 167.460938 325.140625 142.351562 285.03125 135.078125 C 285.035156 135.082031 342.714844 152.84375 311.277344 196.40625 C 311.277344 196.40625 315.921875 162.835938 291.027344 146.992188 C 291.027344 146.992188 311.957031 168.808594 304.082031 198.652344 C 304.082031 198.652344 267.472656 180.691406 283.128906 139.625 C 260.945312 126.671875 235.148438 119.238281 207.609375 119.238281 C 180.070312 119.238281 154.269531 126.671875 132.085938 139.625 C 147.746094 180.691406 111.136719 198.652344 111.136719 198.652344 C 103.257812 168.808594 124.191406 146.992188 124.191406 146.992188 C 99.296875 162.835938 103.941406 196.40625 103.941406 196.40625 C 72.5 152.84375 130.183594 135.082031 130.1875 135.078125 C 90.078125 142.351562 86.339844 167.460938 87.078125 179.9375 C 68.558594 204.886719 57.601562 235.789062 57.601562 269.25 C 57.601562 352.097656 124.761719 419.257812 207.609375 419.257812 L 207.746094 419.257812 C 156.433594 325.0625 210.5625 295.539062 263.28125 260.390625 C 316.003906 225.246094 307.570312 174.628906 307.570312 174.628906 C 323.734375 242.113281 256.957031 271.640625 223.984375 308.191406 C 221.78125 310.636719 219.800781 313.261719 218.019531 316.015625 C 232.683594 339.765625 234.054688 371.035156 207.789062 419.257812 C 290.554688 419.160156 357.617188 352.035156 357.617188 269.25 C 357.617188 235.789062 346.660156 204.886719 328.136719 179.9375 " fill-opacity="1" fill-rule="nonzero"/></g><g fill="#000000" fill-opacity="1"><g transform="translate(400.081166, 292.925039)"><g><path d="M 16.476562 -42.558594 C 16.476562 -50.65625 19.300781 -55.742188 27.777344 -55.742188 C 30.789062 -55.742188 33.238281 -54.988281 35.59375 -53.480469 L 36.535156 -52.917969 C 37.757812 -52.164062 38.417969 -51.503906 40.582031 -51.503906 C 44.160156 -51.503906 46.796875 -54.140625 46.796875 -57.152344 C 46.796875 -62.617188 37.285156 -67.230469 27.304688 -67.230469 C 10.828125 -67.230469 3.296875 -57.4375 3.296875 -42.558594 L 3.296875 -23.917969 C 3.296875 -9.039062 10.828125 0.753906 27.304688 0.753906 C 37.285156 0.753906 46.796875 -3.859375 46.796875 -9.320312 C 46.796875 -12.335938 44.160156 -14.972656 40.582031 -14.972656 C 38.417969 -14.972656 37.757812 -14.3125 36.535156 -13.558594 L 35.59375 -12.992188 C 33.238281 -11.488281 30.789062 -10.734375 27.777344 -10.734375 C 19.300781 -10.734375 16.476562 -15.820312 16.476562 -23.917969 Z M 16.476562 -42.558594 "/></g></g></g><g fill="#000000" fill-opacity="1"><g transform="translate(449.223094, 292.925039)"><g><path d="M 28.71875 0.847656 C 45.007812 0.847656 53.199219 -10.167969 53.199219 -23.917969 L 53.199219 -42.558594 C 53.199219 -55.929688 46.324219 -67.230469 28.71875 -67.230469 C 11.109375 -67.230469 4.238281 -55.929688 4.238281 -42.558594 L 4.238281 -23.917969 C 4.238281 -10.167969 12.429688 0.847656 28.71875 0.847656 Z M 28.71875 -55.269531 C 37.003906 -55.269531 40.015625 -50.1875 40.015625 -42.558594 L 40.015625 -23.917969 C 40.015625 -16.382812 36.4375 -11.109375 28.71875 -11.109375 C 20.996094 -11.109375 17.417969 -16.382812 17.417969 -23.917969 L 17.417969 -42.558594 C 17.417969 -50.1875 20.433594 -55.269531 28.71875 -55.269531 Z M 28.71875 -55.269531 "/></g></g></g><g fill="#000000" fill-opacity="1"><g transform="translate(506.649487, 292.925039)"><g><path d="M 28.71875 0.847656 C 45.007812 0.847656 53.199219 -10.167969 53.199219 -23.917969 L 53.199219 -42.558594 C 53.199219 -55.929688 46.324219 -67.230469 28.71875 -67.230469 C 11.109375 -67.230469 4.238281 -55.929688 4.238281 -42.558594 L 4.238281 -23.917969 C 4.238281 -10.167969 12.429688 0.847656 28.71875 0.847656 Z M 28.71875 -55.269531 C 37.003906 -55.269531 40.015625 -50.1875 40.015625 -42.558594 L 40.015625 -23.917969 C 40.015625 -16.382812 36.4375 -11.109375 28.71875 -11.109375 C 20.996094 -11.109375 17.417969 -16.382812 17.417969 -23.917969 L 17.417969 -42.558594 C 17.417969 -50.1875 20.433594 -55.269531 28.71875 -55.269531 Z M 28.71875 -55.269531 "/></g></g></g><g fill="#000000" fill-opacity="1"><g transform="translate(564.07588, 292.925039)"><g><path d="M 48.019531 -57.152344 C 49.527344 -58.847656 49.621094 -59.789062 49.621094 -61.203125 C 49.621094 -64.5 45.949219 -67.230469 43.125 -67.230469 C 41.054688 -67.230469 38.886719 -65.910156 37.757812 -64.5 L 19.113281 -43.3125 L 19.113281 -61.203125 C 19.113281 -64.40625 16.101562 -67.230469 12.523438 -67.230469 C 8.851562 -67.230469 5.933594 -64.40625 5.933594 -61.203125 L 5.933594 -5.273438 C 5.933594 -1.976562 8.851562 0.847656 12.523438 0.847656 C 16.101562 0.847656 19.113281 -1.976562 19.113281 -5.273438 L 19.113281 -24.480469 L 20.808594 -26.363281 L 39.074219 -1.882812 C 40.488281 0 42.371094 0.847656 44.535156 0.847656 C 48.585938 0.847656 50.941406 -2.730469 50.941406 -5.460938 C 50.941406 -6.402344 50.84375 -7.4375 49.902344 -8.664062 L 29.285156 -35.96875 Z M 48.019531 -57.152344 "/></g></g></g><g fill="#000000" fill-opacity="1"><g transform="translate(616.418659, 292.925039)"><g><path d="M 5.933594 -5.179688 C 5.933594 -1.976562 8.851562 0.847656 12.523438 0.847656 C 16.101562 0.847656 19.113281 -1.976562 19.113281 -5.179688 L 19.113281 -61.203125 C 19.113281 -64.40625 16.101562 -67.230469 12.523438 -67.230469 C 8.851562 -67.230469 5.933594 -64.40625 5.933594 -61.203125 Z M 5.933594 -5.179688 "/></g></g></g><g fill="#000000" fill-opacity="1"><g transform="translate(641.554462, 292.925039)"><g><path d="M 47.265625 0.847656 C 51.410156 0.847656 54.234375 -2.070312 54.234375 -5.554688 L 54.234375 -61.109375 C 54.234375 -64.40625 51.410156 -67.230469 47.738281 -67.230469 C 44.160156 -67.230469 41.054688 -64.40625 41.054688 -61.109375 L 41.054688 -25.515625 C 32.390625 -40.675781 27.589844 -49.246094 19.207031 -63.746094 C 17.890625 -65.816406 15.347656 -67.230469 12.804688 -67.230469 C 8.851562 -67.230469 5.933594 -64.5 5.933594 -60.828125 L 5.933594 -5.273438 C 5.933594 -1.976562 8.757812 0.847656 12.429688 0.847656 C 16.007812 0.847656 19.113281 -1.976562 19.113281 -5.273438 L 19.113281 -40.488281 L 40.957031 -2.449219 C 42.183594 -0.472656 44.820312 0.847656 47.265625 0.847656 Z M 47.265625 0.847656 "/></g></g></g><g fill="#000000" fill-opacity="1"><g transform="translate(701.805116, 292.925039)"><g><path d="M 16.476562 -42.558594 C 16.476562 -50.65625 19.300781 -55.742188 27.777344 -55.742188 C 30.789062 -55.742188 33.238281 -54.894531 35.59375 -53.480469 L 36.535156 -52.917969 C 37.757812 -52.164062 38.417969 -51.503906 40.582031 -51.503906 C 44.160156 -51.503906 46.796875 -54.140625 46.796875 -57.152344 C 46.796875 -62.617188 37.285156 -67.230469 27.304688 -67.230469 C 10.828125 -67.230469 3.296875 -57.4375 3.296875 -42.558594 L 3.296875 -23.917969 C 3.296875 -9.039062 10.828125 0.753906 27.304688 0.753906 C 37.003906 0.753906 48.679688 -3.011719 48.679688 -11.863281 L 48.679688 -32.671875 C 48.679688 -37.191406 45.289062 -39.265625 40.957031 -39.265625 L 30.695312 -39.265625 C 27.589844 -39.265625 24.761719 -36.628906 24.761719 -33.332031 C 24.761719 -30.035156 27.589844 -27.398438 30.695312 -27.398438 L 35.59375 -27.398438 L 35.59375 -12.710938 C 33.425781 -11.582031 31.070312 -10.734375 27.777344 -10.734375 C 19.300781 -10.734375 16.476562 -15.820312 16.476562 -23.917969 Z M 16.476562 -42.558594 "/></g></g></g><g fill="#000000" fill-opacity="1"><g transform="translate(754.524437, 292.925039)"><g><path d="M 19.113281 -40.394531 L 19.113281 -54.519531 L 30.601562 -54.519531 C 35.496094 -54.519531 37.191406 -51.316406 37.191406 -47.738281 C 37.191406 -42.652344 33.238281 -40.394531 29.941406 -40.394531 Z M 30.226562 -28.339844 C 35.214844 -28.339844 38.980469 -25.328125 38.980469 -19.960938 C 38.980469 -15.066406 35.875 -11.957031 29.660156 -11.957031 L 19.113281 -11.957031 L 19.113281 -28.339844 Z M 28.8125 0 C 43.3125 0 52.164062 -8.757812 52.164062 -19.773438 C 52.164062 -27.964844 46.324219 -32.203125 40.488281 -34.554688 C 46.136719 -37.285156 50.375 -41.335938 50.375 -47.925781 C 50.375 -57.34375 43.3125 -66.382812 29.1875 -66.382812 L 13.277344 -66.382812 C 9.320312 -66.382812 5.933594 -63.460938 5.933594 -59.601562 L 5.933594 -6.78125 C 5.933594 -3.105469 9.132812 0 13.277344 0 Z M 28.8125 0 "/></g></g></g><g fill="#000000" fill-opacity="1"><g transform="translate(809.314885, 292.925039)"><g><path d="M 45.949219 -6.027344 C 45.949219 -9.320312 42.9375 -11.863281 39.546875 -11.863281 L 19.113281 -11.863281 L 19.113281 -61.203125 C 19.113281 -64.40625 16.101562 -67.230469 12.523438 -67.230469 C 8.851562 -67.230469 5.933594 -64.40625 5.933594 -61.203125 L 5.933594 -6.496094 C 5.933594 -2.824219 9.226562 0 12.992188 0 L 39.546875 0 C 43.125 0 45.949219 -2.636719 45.949219 -6.027344 Z M 45.949219 -6.027344 "/></g></g></g><g fill="#000000" fill-opacity="1"><g transform="translate(856.668139, 292.925039)"><g><path d="M 28.71875 0.847656 C 45.007812 0.847656 53.199219 -10.167969 53.199219 -23.917969 L 53.199219 -42.558594 C 53.199219 -55.929688 46.324219 -67.230469 28.71875 -67.230469 C 11.109375 -67.230469 4.238281 -55.929688 4.238281 -42.558594 L 4.238281 -23.917969 C 4.238281 -10.167969 12.429688 0.847656 28.71875 0.847656 Z M 28.71875 -55.269531 C 37.003906 -55.269531 40.015625 -50.1875 40.015625 -42.558594 L 40.015625 -23.917969 C 40.015625 -16.382812 36.4375 -11.109375 28.71875 -11.109375 C 20.996094 -11.109375 17.417969 -16.382812 17.417969 -23.917969 L 17.417969 -42.558594 C 17.417969 -50.1875 20.433594 -55.269531 28.71875 -55.269531 Z M 28.71875 -55.269531 "/></g></g></g><g fill="#000000" fill-opacity="1"><g transform="translate(914.094532, 292.925039)"><g><path d="M 16.476562 -42.558594 C 16.476562 -50.65625 19.300781 -55.742188 27.777344 -55.742188 C 30.789062 -55.742188 33.238281 -54.894531 35.59375 -53.480469 L 36.535156 -52.917969 C 37.757812 -52.164062 38.417969 -51.503906 40.582031 -51.503906 C 44.160156 -51.503906 46.796875 -54.140625 46.796875 -57.152344 C 46.796875 -62.617188 37.285156 -67.230469 27.304688 -67.230469 C 10.828125 -67.230469 3.296875 -57.4375 3.296875 -42.558594 L 3.296875 -23.917969 C 3.296875 -9.039062 10.828125 0.753906 27.304688 0.753906 C 37.003906 0.753906 48.679688 -3.011719 48.679688 -11.863281 L 48.679688 -32.671875 C 48.679688 -37.191406 45.289062 -39.265625 40.957031 -39.265625 L 30.695312 -39.265625 C 27.589844 -39.265625 24.761719 -36.628906 24.761719 -33.332031 C 24.761719 -30.035156 27.589844 -27.398438 30.695312 -27.398438 L 35.59375 -27.398438 L 35.59375 -12.710938 C 33.425781 -11.582031 31.070312 -10.734375 27.777344 -10.734375 C 19.300781 -10.734375 16.476562 -15.820312 16.476562 -23.917969 Z M 16.476562 -42.558594 "/></g></g></g></svg>