<svg xmlns="http://www.w3.org/2000/svg" xmlns:xlink="http://www.w3.org/1999/xlink" width="1366" zoomAndPan="magnify" viewBox="0 0 1024.5 576" height="768" preserveAspectRatio="xMidYMid meet" version="1.0"><defs><g/><clipPath id="id1"><path d="M 334 404 L 593 404 L 593 509.359375 L 334 509.359375 Z M 334 404 " clip-rule="nonzero"/></clipPath><clipPath id="id2"><path d="M 344 430 L 513 430 L 513 509.359375 L 344 509.359375 Z M 344 430 " clip-rule="nonzero"/></clipPath><clipPath id="id3"><path d="M 316 66.859375 L 694 66.859375 L 694 187 L 316 187 Z M 316 66.859375 " clip-rule="nonzero"/></clipPath></defs><g clip-path="url(#id1)"><path fill="#80c244" d="M 592.878906 494.679688 C 587.925781 487.9375 582.609375 481.492188 576.929688 475.351562 C 571.246094 469.207031 565.238281 463.40625 558.902344 457.941406 C 552.566406 452.476562 545.941406 447.386719 539.027344 442.671875 C 532.113281 437.957031 524.957031 433.644531 517.558594 429.734375 C 514.078125 427.90625 510.550781 426.171875 506.976562 424.527344 C 503.40625 422.886719 499.789062 421.339844 496.136719 419.890625 C 492.480469 418.441406 488.789062 417.085938 485.0625 415.832031 C 481.335938 414.578125 477.578125 413.425781 473.789062 412.371094 C 470 411.316406 466.1875 410.363281 462.347656 409.507812 C 458.507812 408.65625 454.652344 407.90625 450.773438 407.261719 C 446.894531 406.613281 443 406.070312 439.089844 405.628906 C 435.183594 405.1875 431.265625 404.851562 427.339844 404.621094 C 423.414062 404.386719 419.484375 404.257812 415.554688 404.234375 C 411.621094 404.210938 407.691406 404.292969 403.761719 404.476562 C 399.832031 404.660156 395.914062 404.949219 392 405.34375 C 388.085938 405.738281 384.1875 406.234375 380.300781 406.832031 C 376.414062 407.433594 372.546875 408.136719 368.699219 408.941406 C 364.847656 409.746094 361.023438 410.65625 357.222656 411.664062 C 353.421875 412.671875 349.648438 413.78125 345.910156 414.988281 C 342.167969 416.199219 338.460938 417.507812 334.785156 418.914062 C 336.570312 421.335938 338.398438 423.726562 340.277344 426.078125 C 342.15625 428.429688 344.082031 430.738281 346.054688 433.011719 C 348.03125 435.285156 350.046875 437.515625 352.113281 439.707031 C 354.175781 441.898438 356.285156 444.042969 358.4375 446.148438 C 360.589844 448.253906 362.78125 450.3125 365.019531 452.328125 C 367.253906 454.34375 369.53125 456.3125 371.84375 458.234375 C 374.160156 460.160156 376.515625 462.03125 378.910156 463.859375 C 381.300781 465.6875 383.730469 467.464844 386.195312 469.191406 C 388.660156 470.917969 391.160156 472.597656 393.691406 474.222656 C 396.226562 475.847656 398.789062 477.421875 401.386719 478.945312 C 403.984375 480.464844 406.613281 481.933594 409.269531 483.347656 C 411.929688 484.761719 414.613281 486.121094 417.324219 487.429688 C 420.039062 488.734375 422.777344 489.984375 425.539062 491.175781 C 428.304688 492.371094 431.089844 493.507812 433.902344 494.585938 C 436.710938 495.667969 439.542969 496.691406 442.394531 497.65625 C 445.246094 498.621094 448.117188 499.527344 451.003906 500.375 C 453.894531 501.222656 456.800781 502.011719 459.71875 502.742188 C 462.640625 503.472656 465.574219 504.140625 468.523438 504.753906 C 471.472656 505.363281 474.433594 505.914062 477.402344 506.402344 C 480.375 506.894531 483.351562 507.324219 486.339844 507.691406 C 489.328125 508.058594 492.324219 508.367188 495.324219 508.613281 C 498.324219 508.859375 501.328125 509.046875 504.339844 509.171875 C 507.347656 509.292969 510.355469 509.355469 513.367188 509.359375 C 516.378906 509.359375 519.386719 509.300781 522.394531 509.179688 C 525.40625 509.058594 528.410156 508.878906 531.410156 508.632812 C 534.410156 508.390625 537.40625 508.085938 540.394531 507.722656 C 543.382812 507.355469 546.363281 506.929688 549.335938 506.445312 C 552.304688 505.957031 555.265625 505.410156 558.214844 504.804688 C 561.164062 504.199219 564.097656 503.53125 567.019531 502.804688 C 569.941406 502.078125 572.847656 501.292969 575.738281 500.445312 C 578.628906 499.601562 581.5 498.699219 584.351562 497.738281 C 587.207031 496.777344 590.039062 495.757812 592.847656 494.679688 Z M 592.878906 494.679688 " fill-opacity="1" fill-rule="evenodd"/></g><path fill="#80c244" d="M 592.765625 494.511719 L 592.765625 494.679688 C 601.667969 491.242188 610.3125 487.246094 618.699219 482.695312 C 627.085938 478.140625 635.148438 473.070312 642.878906 467.480469 C 650.613281 461.890625 657.957031 455.828125 664.90625 449.292969 C 671.859375 442.757812 678.359375 435.804688 684.414062 428.429688 C 678.351562 426.027344 672.191406 423.894531 665.941406 422.03125 C 659.6875 420.167969 653.363281 418.585938 646.972656 417.277344 C 640.578125 415.972656 634.144531 414.949219 627.660156 414.210938 C 621.179688 413.472656 614.675781 413.019531 608.152344 412.855469 C 601.628906 412.6875 595.113281 412.808594 588.601562 413.214844 C 582.089844 413.621094 575.609375 414.3125 569.160156 415.292969 C 562.707031 416.269531 556.3125 417.527344 549.972656 419.070312 C 543.632812 420.609375 537.375 422.425781 531.195312 424.519531 C 543.808594 433.886719 555.304688 444.464844 565.683594 456.261719 C 576.058594 468.058594 585.085938 480.808594 592.765625 494.511719 Z M 592.765625 494.511719 " fill-opacity="1" fill-rule="evenodd"/><g clip-path="url(#id2)"><path fill="#ffffff" d="M 512.03125 509.332031 C 509.464844 506.289062 506.816406 503.320312 504.085938 500.421875 C 501.359375 497.519531 498.550781 494.699219 495.671875 491.949219 C 492.789062 489.203125 489.835938 486.535156 486.808594 483.945312 C 483.785156 481.359375 480.691406 478.855469 477.53125 476.433594 C 474.367188 474.011719 471.144531 471.679688 467.855469 469.433594 C 464.566406 467.183594 461.222656 465.03125 457.816406 462.964844 C 454.414062 460.898438 450.957031 458.925781 447.445312 457.046875 C 443.933594 455.167969 440.375 453.386719 436.765625 451.699219 C 433.160156 450.011719 429.507812 448.425781 425.816406 446.933594 C 422.121094 445.445312 418.390625 444.058594 414.621094 442.769531 C 410.851562 441.484375 407.050781 440.296875 403.21875 439.214844 C 399.386719 438.132812 395.527344 437.15625 391.640625 436.28125 C 387.753906 435.410156 383.847656 434.640625 379.921875 433.976562 C 375.996094 433.316406 372.050781 432.761719 368.09375 432.3125 C 364.136719 431.859375 360.171875 431.519531 356.195312 431.285156 C 352.21875 431.050781 348.238281 430.921875 344.257812 430.902344 L 345.671875 432.566406 C 352.453125 433.378906 359.179688 434.5 365.855469 435.933594 C 372.53125 437.367188 379.125 439.109375 385.640625 441.152344 C 392.152344 443.195312 398.558594 445.539062 404.855469 448.175781 C 411.152344 450.816406 417.3125 453.738281 423.339844 456.949219 C 429.363281 460.15625 435.226562 463.636719 440.929688 467.390625 C 446.632812 471.140625 452.148438 475.148438 457.480469 479.414062 C 462.8125 483.675781 467.933594 488.175781 472.847656 492.914062 C 477.761719 497.652344 482.445312 502.605469 486.898438 507.777344 C 487.8125 507.777344 488.730469 508 489.675781 508.054688 C 490.617188 508.113281 491.953125 508.332031 493.117188 508.417969 C 498.117188 508.859375 503.171875 509.167969 508.28125 509.25 C 509.523438 509.25 510.773438 509.25 512.03125 509.25 Z M 512.03125 509.332031 " fill-opacity="1" fill-rule="evenodd"/></g><path fill="#ffffff" d="M 383.082031 419.632812 C 387.097656 419.832031 391.101562 420.136719 395.097656 420.550781 C 399.09375 420.964844 403.074219 421.488281 407.042969 422.117188 C 411.007812 422.75 414.957031 423.488281 418.882812 424.335938 C 422.8125 425.183594 426.710938 426.132812 430.585938 427.191406 C 434.460938 428.253906 438.304688 429.414062 442.117188 430.683594 C 445.929688 431.953125 449.703125 433.324219 453.441406 434.796875 C 457.179688 436.269531 460.871094 437.84375 464.523438 439.519531 C 468.175781 441.195312 471.777344 442.96875 475.332031 444.839844 C 478.886719 446.710938 482.386719 448.675781 485.835938 450.738281 C 489.28125 452.800781 492.667969 454.953125 496 457.203125 C 499.328125 459.449219 502.59375 461.78125 505.796875 464.207031 C 509 466.632812 512.132812 469.140625 515.199219 471.738281 C 518.265625 474.332031 521.257812 477.007812 524.175781 479.765625 C 527.09375 482.523438 529.9375 485.359375 532.703125 488.273438 C 535.46875 491.183594 538.148438 494.171875 540.753906 497.230469 C 543.355469 500.289062 545.871094 503.417969 548.300781 506.613281 C 555.246094 505.53125 562.1875 504.085938 568.769531 502.367188 C 566.191406 499.136719 563.519531 495.980469 560.761719 492.902344 C 558.003906 489.820312 555.164062 486.820312 552.234375 483.902344 C 549.308594 480.980469 546.304688 478.144531 543.21875 475.394531 C 540.132812 472.640625 536.96875 469.976562 533.734375 467.402344 C 530.5 464.828125 527.195312 462.347656 523.820312 459.957031 C 520.445312 457.570312 517.003906 455.277344 513.5 453.082031 C 509.996094 450.882812 506.433594 448.789062 502.8125 446.792969 C 499.191406 444.796875 495.515625 442.902344 491.789062 441.113281 C 488.0625 439.324219 484.285156 437.640625 480.464844 436.0625 C 476.640625 434.484375 472.777344 433.011719 468.871094 431.652344 C 464.96875 430.289062 461.027344 429.039062 457.050781 427.898438 C 453.078125 426.757812 449.070312 425.730469 445.039062 424.816406 C 441.003906 423.898438 436.949219 423.097656 432.871094 422.410156 C 428.792969 421.722656 424.699219 421.148438 420.589844 420.691406 C 416.480469 420.230469 412.359375 419.890625 408.230469 419.664062 C 404.097656 419.433594 399.96875 419.324219 395.832031 419.328125 C 391.554688 419.328125 387.304688 419.328125 383.082031 419.632812 Z M 383.082031 419.632812 " fill-opacity="1" fill-rule="evenodd"/><path fill="#ffffff" d="M 561.828125 451.910156 C 572.84375 445.707031 584.3125 440.496094 596.234375 436.273438 C 608.152344 432.050781 620.347656 428.882812 632.8125 426.765625 C 619.234375 427.117188 605.804688 428.714844 592.523438 431.554688 C 579.242188 434.394531 566.332031 438.433594 553.800781 443.667969 C 556.550781 446.332031 559.214844 449.082031 561.828125 451.910156 Z M 561.828125 451.910156 " fill-opacity="1" fill-rule="evenodd"/><path fill="#ffffff" d="M 664.722656 443.445312 C 648.921875 443.859375 633.339844 445.949219 617.988281 449.714844 C 602.632812 453.484375 587.859375 458.839844 573.660156 465.789062 C 576.4375 469.144531 578.851562 472.613281 581.296875 476.113281 C 593.933594 467.867188 607.277344 460.992188 621.328125 455.488281 C 635.378906 449.988281 649.847656 445.972656 664.722656 443.445312 Z M 664.722656 443.445312 " fill-opacity="1" fill-rule="evenodd"/><g clip-path="url(#id3)"><path fill="#80c244" d="M 515.667969 176.597656 C 578.40625 162.054688 630.148438 130.859375 693.941406 159.945312 C 691.421875 156.398438 688.800781 152.929688 686.078125 149.539062 C 683.355469 146.148438 680.535156 142.839844 677.617188 139.613281 C 674.695312 136.386719 671.683594 133.253906 668.582031 130.203125 C 665.476562 127.15625 662.285156 124.203125 659.007812 121.34375 C 655.730469 118.484375 652.367188 115.726562 648.925781 113.0625 C 645.484375 110.402344 641.96875 107.84375 638.375 105.390625 C 634.78125 102.9375 631.121094 100.59375 627.390625 98.355469 C 623.660156 96.117188 619.863281 93.992188 616.007812 91.976562 C 612.152344 89.964844 608.238281 88.066406 604.269531 86.28125 C 600.300781 84.5 596.28125 82.835938 592.214844 81.289062 C 588.148438 79.742188 584.039062 78.316406 579.886719 77.015625 C 575.734375 75.710938 571.550781 74.53125 567.328125 73.472656 C 563.109375 72.417969 558.859375 71.488281 554.582031 70.679688 C 550.308594 69.875 546.011719 69.195312 541.695312 68.640625 C 537.378906 68.089844 533.050781 67.664062 528.707031 67.367188 C 524.367188 67.070312 520.019531 66.902344 515.667969 66.859375 L 513.390625 66.859375 C 508.351562 66.859375 503.316406 67.027344 498.285156 67.371094 C 493.257812 67.710938 488.242188 68.222656 483.25 68.90625 C 478.253906 69.589844 473.289062 70.445312 468.351562 71.464844 C 463.417969 72.488281 458.519531 73.679688 453.667969 75.035156 C 448.8125 76.390625 444.007812 77.914062 439.257812 79.597656 C 434.507812 81.28125 429.820312 83.128906 425.195312 85.132812 C 420.570312 87.136719 416.019531 89.296875 411.539062 91.613281 C 407.0625 93.929688 402.671875 96.394531 398.363281 99.007812 C 394.054688 101.625 389.839844 104.382812 385.71875 107.285156 C 381.597656 110.191406 377.582031 113.230469 373.671875 116.40625 C 369.757812 119.585938 365.960938 122.890625 362.273438 126.328125 C 358.585938 129.765625 355.023438 133.324219 351.582031 137.003906 C 348.136719 140.683594 344.824219 144.476562 341.640625 148.382812 C 338.457031 152.289062 335.410156 156.296875 332.5 160.414062 C 329.59375 164.527344 326.828125 168.734375 324.207031 173.039062 C 321.582031 177.339844 319.113281 181.726562 316.789062 186.199219 C 316.789062 186.199219 336.230469 158.835938 371.113281 164.164062 C 391.582031 145.234375 435.351562 114.511719 509.644531 106.4375 C 509.644531 106.4375 433.296875 130.777344 396.136719 171.933594 C 442.128906 187.671875 480.648438 184.730469 515.667969 176.597656 Z M 515.667969 176.597656 " fill-opacity="1" fill-rule="evenodd"/></g><path fill="#ffffff" d="M 377.890625 130.691406 C 382.550781 126.625 387.386719 122.773438 392.394531 119.140625 C 397.40625 115.507812 402.566406 112.109375 407.882812 108.941406 C 413.203125 105.773438 418.648438 102.855469 424.230469 100.179688 C 429.8125 97.503906 435.5 95.089844 441.300781 92.925781 C 447.101562 90.765625 452.984375 88.871094 458.957031 87.242188 C 464.925781 85.613281 470.957031 84.253906 477.050781 83.171875 C 483.144531 82.085938 489.273438 81.277344 495.441406 80.746094 C 501.609375 80.214844 507.785156 79.960938 513.976562 79.988281 C 523.910156 79.945312 533.792969 80.617188 543.632812 81.996094 C 553.46875 83.375 563.15625 85.449219 572.695312 88.222656 C 582.234375 90.992188 591.523438 94.433594 600.566406 98.539062 C 609.609375 102.648438 618.3125 107.378906 626.675781 112.738281 C 622.707031 109.566406 618.617188 106.566406 614.398438 103.734375 C 610.179688 100.902344 605.851562 98.253906 601.414062 95.78125 C 596.976562 93.3125 592.441406 91.027344 587.8125 88.933594 C 583.183594 86.839844 578.476562 84.941406 573.691406 83.238281 C 568.90625 81.535156 564.058594 80.035156 559.144531 78.734375 C 554.234375 77.433594 549.277344 76.339844 544.277344 75.449219 C 539.273438 74.5625 534.242188 73.882812 529.183594 73.414062 C 524.125 72.941406 519.054688 72.683594 513.976562 72.632812 L 511.976562 72.632812 C 505.707031 72.632812 499.457031 72.953125 493.222656 73.59375 C 486.988281 74.230469 480.804688 75.1875 474.667969 76.460938 C 468.53125 77.730469 462.472656 79.3125 456.5 81.203125 C 450.523438 83.09375 444.660156 85.285156 438.910156 87.773438 C 433.160156 90.265625 427.550781 93.042969 422.085938 96.105469 C 416.617188 99.167969 411.324219 102.5 406.199219 106.105469 C 401.074219 109.710938 396.144531 113.566406 391.414062 117.675781 C 386.683594 121.785156 382.175781 126.125 377.890625 130.691406 Z M 377.890625 130.691406 " fill-opacity="1" fill-rule="evenodd"/><path fill="#ffffff" d="M 415.328125 168.382812 C 426.085938 160.007812 437.488281 152.628906 449.535156 146.246094 C 461.582031 139.859375 474.09375 134.566406 487.0625 130.359375 C 496.441406 127.257812 505.957031 124.667969 515.613281 122.589844 C 510.882812 122.882812 506.175781 123.386719 501.492188 124.101562 C 496.808594 124.816406 492.167969 125.742188 487.566406 126.878906 C 482.964844 128.011719 478.425781 129.351562 473.945312 130.894531 C 469.464844 132.4375 465.0625 134.175781 460.742188 136.117188 C 456.417969 138.054688 452.191406 140.1875 448.058594 142.507812 C 443.929688 144.828125 439.910156 147.328125 436.003906 150.007812 C 432.101562 152.691406 428.324219 155.542969 424.675781 158.566406 C 421.027344 161.585938 417.523438 164.765625 414.160156 168.105469 Z M 415.328125 168.382812 " fill-opacity="1" fill-rule="evenodd"/><g fill="#181b13" fill-opacity="1"><g transform="translate(134.139454, 349.469357)"><g><path d="M 39.414062 1.941406 C 62.519531 1.941406 73.78125 -7.570312 79.992188 -24.464844 C 83.683594 -34.753906 80.964844 -43.492188 75.140625 -47.570312 C 73.585938 -48.734375 71.449219 -47.570312 70.867188 -45.433594 C 63.683594 -20.582031 52.421875 -9.515625 40.578125 -12.039062 C 28.542969 -10.871094 24.074219 -30.871094 33.007812 -65.042969 C 45.046875 -111.058594 58.054688 -125.816406 74.363281 -125.816406 C 80.964844 -125.816406 82.128906 -117.855469 75.332031 -91.835938 C 74.363281 -88.34375 72.421875 -77.664062 85.820312 -74.558594 C 87.175781 -74.363281 88.34375 -74.945312 88.925781 -76.109375 C 107.371094 -115.523438 103.875 -141.542969 71.0625 -138.824219 C 42.328125 -143.289062 22.910156 -115.332031 10.289062 -64.65625 C 0.386719 -24.851562 11.066406 1.941406 39.414062 1.941406 Z M 39.414062 1.941406 "/></g></g></g><g fill="#181b13" fill-opacity="1"><g transform="translate(227.5273, 349.469357)"><g><path d="M 38.636719 2.71875 C 61.546875 2.523438 73.199219 -14.171875 82.324219 -45.238281 C 92.613281 -80.1875 79.410156 -107.566406 54.753906 -98.828125 C 32.425781 -100.574219 17.667969 -81.546875 8.929688 -52.421875 C -2.523438 -14.367188 9.320312 7.570312 38.636719 2.71875 Z M 33.203125 -7.378906 C 22.523438 -12.425781 24.074219 -31.257812 29.707031 -50.09375 C 37.085938 -74.558594 42.132812 -86.984375 51.257812 -88.34375 C 68.34375 -88.148438 67.375 -66.207031 61.546875 -47.570312 C 51.644531 -15.726562 45.820312 -4.273438 33.203125 -7.378906 Z M 33.203125 -7.378906 "/></g></g></g><g fill="#181b13" fill-opacity="1"><g transform="translate(312.760736, 349.469357)"><g><path d="M 38.636719 2.71875 C 61.546875 2.523438 73.199219 -14.171875 82.324219 -45.238281 C 92.613281 -80.1875 79.410156 -107.566406 54.753906 -98.828125 C 32.425781 -100.574219 17.667969 -81.546875 8.929688 -52.421875 C -2.523438 -14.367188 9.320312 7.570312 38.636719 2.71875 Z M 33.203125 -7.378906 C 22.523438 -12.425781 24.074219 -31.257812 29.707031 -50.09375 C 37.085938 -74.558594 42.132812 -86.984375 51.257812 -88.34375 C 68.34375 -88.148438 67.375 -66.207031 61.546875 -47.570312 C 51.644531 -15.726562 45.820312 -4.273438 33.203125 -7.378906 Z M 33.203125 -7.378906 "/></g></g></g><g fill="#181b13" fill-opacity="1"><g transform="translate(397.994171, 349.469357)"><g><path d="M 94.945312 -43.296875 C 94.363281 -43.6875 93.585938 -43.492188 93.390625 -42.714844 C 85.042969 -15.339844 76.109375 -13.007812 69.898438 -13.007812 C 57.082031 -13.007812 47.957031 -36.890625 50.09375 -52.035156 C 62.714844 -55.53125 73.003906 -62.519531 77.277344 -74.75 C 81.933594 -87.566406 76.109375 -95.136719 66.015625 -98.632812 C 64.265625 -99.214844 62.519531 -98.050781 62.132812 -96.304688 C 56.5 -70.285156 45.820312 -62.714844 33.976562 -58.636719 L 52.617188 -124.066406 C 55.53125 -134.164062 48.929688 -143.289062 38.832031 -144.648438 C 37.472656 -144.84375 36.308594 -143.871094 35.917969 -142.707031 L 0.386719 -17.667969 C -2.523438 -7.765625 3.496094 1.164062 14.171875 2.914062 C 15.53125 3.105469 16.699219 2.328125 17.085938 0.777344 L 31.648438 -50.480469 C 32.230469 -14.367188 42.910156 3.105469 63.101562 3.105469 C 82.324219 3.105469 92.226562 -11.261719 99.410156 -33.394531 C 100.574219 -37.472656 99.214844 -40.578125 94.945312 -43.296875 Z M 94.945312 -43.296875 "/></g></g></g><g fill="#181b13" fill-opacity="1"><g transform="translate(483.810046, 349.469357)"><g><path d="M 102.710938 -43.296875 C 102.128906 -43.6875 101.351562 -43.492188 101.15625 -42.714844 C 92.808594 -15.339844 83.878906 -13.007812 77.664062 -13.007812 C 69.898438 -13.007812 68.925781 -18.640625 73.390625 -33.394531 L 84.847656 -71.839844 C 91.0625 -93.003906 86.207031 -99.796875 74.558594 -99.796875 C 73.390625 -99.796875 72.421875 -99.019531 72.035156 -97.855469 L 69.703125 -90.476562 C 66.402344 -97.664062 60.382812 -100.769531 54.753906 -98.828125 C 32.425781 -100.574219 17.667969 -81.546875 8.929688 -52.421875 C -2.914062 -12.816406 11.066406 11.457031 38.636719 0 C 42.714844 0 46.210938 -3.105469 49.511719 -7.960938 C 52.035156 0.386719 59.414062 3.105469 70.867188 3.105469 C 90.089844 3.105469 99.992188 -11.261719 107.175781 -33.394531 C 108.339844 -37.472656 106.980469 -40.578125 102.710938 -43.296875 Z M 33.203125 -9.902344 C 22.523438 -14.949219 24.074219 -31.257812 29.707031 -50.09375 C 37.085938 -74.558594 47.179688 -86.402344 55.917969 -86.402344 C 65.042969 -86.402344 64.460938 -75.140625 59.023438 -57.664062 L 54.558594 -43.6875 C 53.003906 -39.027344 51.839844 -34.949219 50.871094 -31.066406 C 46.792969 -18.640625 39.21875 -8.347656 33.203125 -9.902344 Z M 33.203125 -9.902344 "/></g></g></g><g fill="#181b13" fill-opacity="1"><g transform="translate(577.392055, 349.469357)"><g><path d="M 120.765625 -99.796875 C 119.601562 -99.796875 118.632812 -99.019531 118.242188 -97.855469 L 98.050781 -34.753906 C 90.671875 -14.757812 82.90625 -9.902344 77.277344 -9.902344 C 69.507812 -9.902344 68.539062 -18.640625 73.003906 -33.394531 L 84.460938 -71.839844 C 90.671875 -93.003906 85.820312 -99.796875 74.167969 -99.796875 C 73.003906 -99.796875 72.035156 -99.019531 71.644531 -97.855469 L 54.171875 -43.6875 C 53.394531 -40.96875 52.617188 -38.445312 52.035156 -36.113281 C 48.347656 -21.550781 39.609375 -8.15625 32.8125 -9.902344 C 22.714844 -14.757812 25.242188 -29.511719 30.289062 -46.988281 L 37.859375 -71.839844 C 44.074219 -93.003906 39.21875 -99.796875 27.570312 -99.796875 C 26.40625 -99.796875 25.433594 -99.019531 25.046875 -97.855469 L 9.320312 -49.511719 C -1.941406 -12.039062 11.457031 11.261719 38.25 0 C 43.296875 0 47.957031 -5.046875 51.839844 -12.230469 C 55.722656 -0.582031 66.597656 3.105469 76.5 3.105469 C 91.644531 3.105469 107.757812 0 119.796875 -40.96875 L 128.535156 -71.839844 C 134.550781 -93.003906 132.417969 -99.796875 120.765625 -99.796875 Z M 120.765625 -99.796875 "/></g></g></g><g fill="#181b13" fill-opacity="1"><g transform="translate(703.591856, 349.469357)"><g><path d="M 102.710938 -43.296875 C 102.128906 -43.6875 101.351562 -43.492188 101.15625 -42.714844 C 92.808594 -15.339844 83.878906 -13.007812 77.664062 -13.007812 C 69.898438 -13.007812 68.925781 -18.640625 73.390625 -33.394531 L 84.847656 -71.839844 C 91.0625 -93.003906 86.207031 -99.796875 74.558594 -99.796875 C 73.390625 -99.796875 72.421875 -99.019531 72.035156 -97.855469 L 69.703125 -90.476562 C 66.402344 -97.664062 60.382812 -100.769531 54.753906 -98.828125 C 32.425781 -100.574219 17.667969 -81.546875 8.929688 -52.421875 C -2.914062 -12.816406 11.066406 11.457031 38.636719 0 C 42.714844 0 46.210938 -3.105469 49.511719 -7.960938 C 52.035156 0.386719 59.414062 3.105469 70.867188 3.105469 C 90.089844 3.105469 99.992188 -11.261719 107.175781 -33.394531 C 108.339844 -37.472656 106.980469 -40.578125 102.710938 -43.296875 Z M 33.203125 -9.902344 C 22.523438 -14.949219 24.074219 -31.257812 29.707031 -50.09375 C 37.085938 -74.558594 47.179688 -86.402344 55.917969 -86.402344 C 65.042969 -86.402344 64.460938 -75.140625 59.023438 -57.664062 L 54.558594 -43.6875 C 53.003906 -39.027344 51.839844 -34.949219 50.871094 -31.066406 C 46.792969 -18.640625 39.21875 -8.347656 33.203125 -9.902344 Z M 33.203125 -9.902344 "/></g></g></g><g fill="#181b13" fill-opacity="1"><g transform="translate(797.173865, 349.469357)"><g><path d="M 102.320312 -43.296875 C 101.738281 -43.6875 100.964844 -43.492188 100.769531 -42.519531 C 92.421875 -14.5625 83.488281 -13.007812 77.277344 -13.007812 C 69.507812 -13.007812 68.539062 -18.640625 73.003906 -33.394531 L 84.460938 -71.839844 C 90.671875 -93.003906 85.820312 -99.796875 74.167969 -99.796875 C 73.003906 -99.796875 72.035156 -99.019531 71.644531 -97.855469 L 54.171875 -43.6875 L 53.589844 -41.550781 C 52.230469 -37.472656 50.289062 -31.84375 48.347656 -25.628906 C 44.074219 -15.726562 37.859375 -8.542969 32.8125 -9.902344 C 22.714844 -14.757812 25.242188 -29.511719 30.289062 -46.988281 L 37.859375 -71.839844 C 44.074219 -93.003906 39.21875 -99.796875 27.570312 -99.796875 C 26.40625 -99.796875 25.433594 -99.019531 25.046875 -97.855469 L 9.320312 -49.511719 C -1.941406 -12.039062 11.457031 11.261719 38.25 0 C 39.609375 0 40.773438 -0.386719 42.132812 -0.972656 C 35.726562 20.773438 30.289062 25.046875 21.746094 25.824219 C 17.667969 26.210938 13.589844 26.015625 9.320312 25.628906 C 6.988281 25.433594 5.242188 26.988281 5.628906 29.316406 L 6.40625 33.976562 C 7.378906 40.191406 16.308594 44.074219 28.929688 42.519531 C 50.675781 39.800781 58.246094 22.328125 63.101562 2.71875 C 65.433594 2.914062 67.761719 3.105469 70.480469 3.105469 C 89.703125 3.105469 99.605469 -11.261719 106.789062 -33.394531 C 107.953125 -37.472656 106.59375 -40.578125 102.320312 -43.296875 Z M 102.320312 -43.296875 "/></g></g></g></svg>